# xmcd CD database file
#
# Track frame offsets:
#	150
#	23710
#	45556
#	65435
#	80473
#	97826
#	117940
#	138152
#	156206
#	174375
#	201629
#	217586
#	238094
#	252360
#	273183
#
# Disc length: 3830 seconds
#
# Revision: 0
# Processed by: cddbd v1.5.2PL0 Copyright (c) Steve Scherf et al.
# Submitted via: CDex 1.51
#
DISCID=c40ef40f
DTITLE=Foreday Riders - Shake A Leg
DYEAR=2005
DGENRE=Blues
TTITLE0=You're The One
TTITLE1=Bourbon To Scotch
TTITLE2=Diamonds At Her Feet
TTITLE3=Peepin'
TTITLE4=Lonesome
TTITLE5=Baby, Baby!
TTITLE6=Hard Life
TTITLE7=Have You Made Up My Mind?
TTITLE8=Hollywood (Revisited)
TTITLE9=The Lights Are On
TTITLE10=Shake A Leg
TTITLE11=Body And Fender Man
TTITLE12=Evening Sun
TTITLE13=Ain't Doin' Too Bad
TTITLE14=Include Me Out
EXTD=YEAR: 2005
EXTT0=
EXTT1=
EXTT2=
EXTT3=
EXTT4=
EXTT5=
EXTT6=
EXTT7=
EXTT8=
EXTT9=
EXTT10=
EXTT11=
EXTT12=
EXTT13=
EXTT14=
PLAYORDER=
